{"title":"Inside.Out.2015.720p.WEBRip.x264.AAC2.0-RARBG","uid":12510580,"size":3906995621,"categoryP":"video","categoryS":"movies","magnet":"?xt=urn:btih:f000bafd08ff49a33d800fa1fd9c6bf6a89af4ab&amp;dn=Inside.Out.2015.720p.WEBRip.x264.AAC2.0-RARBG&amp;tr=udp%3A%2F%2Ftracker.leechers-paradise.org%3A6969&amp;tr=udp%3A%2F%2Fzer0day.ch%3A1337&amp;tr=udp%3A%2F%2Fopen.demonii.com%3A1337&amp;tr=udp%3A%2F%2Ftracker.coppersurfer.tk%3A6969&amp;tr=udp%3A%2F%2Fexodus.desync.com%3A6969","seeders":3,"leechers":0,"uploader":"vickey1992","files":4,"time":1443546228,"description":"Video\r\nID                                       : 1\r\nFormat                                   : AVC\r\nFormat/Info                              : Advanced Video Codec\r\nFormat profile                           :   \r\nFormat settings, CABAC                   : Yes\r\nFormat settings, ReFrames                : 3 frames\r\nCodec ID                                 : avc1\r\nCodec ID/Info                            : Advanced Video Coding\r\nDuration                                 : 1h 34mn\r\nBit rate                                 : 5 275 Kbps\r\nWidth                                    : 1 280 pixels\r\nHeight                                   : 720 pixels\r\nDisplay aspect ratio                     : 16:9\r\nFrame rate mode                          : Variable\r\nFrame rate                               : 30.000 fps\r\nMinimum frame rate                       : 29.412 fps\r\nMaximum frame rate                       : 30.303 fps\r\nStandard                                 : NTSC\r\nColor space                              : YUV\r\nChroma subsampling                       : 4:2:0\r\nBit depth                                : 8 bits\r\nScan type                                : Progressive\r\nBits/(Pixel*Frame)                       : 0.191\r\nStream size                              : 3.48 GiB (96%)\r\nTitle                                    : Inside.Out.2015.720p.WEBRip.x264.AAC2.0-RARBG\r\nLanguage                                 : English\r\nColor range                              : Limited\r\nColor primaries                          : BT.709\r\nTransfer characteristics                 : BT.709\r\nMatrix coefficients                      : BT.709\r\n\r\nAudio\r\nID                                       : 2\r\nFormat                                   : AAC\r\nFormat/Info                              : Advanced Audio Codec\r\nFormat profile                           : LC\r\nCodec ID                                 : 40\r\nDuration                                 : 1h 34mn\r\nDuration_LastFrame                       : -11ms\r\nBit rate mode                            : Constant\r\nBit rate                                 : 224 Kbps\r\nChannel(s)                               : 2 channels\r\nChannel positions                        : Front: L R\r\nSampling rate                            : 48.0 KHz\r\nCompression mode                         : Lossy\r\nStream size                              : 152 MiB (4%)\r\nTitle                                    : Inside.Out.2015.720p.WEBRip.x264.AAC2.0-RARBG\r\nLanguage                                 : English","torrent":{"xt":"urn:btih:f000bafd08ff49a33d800fa1fd9c6bf6a89af4ab","amp;dn":"Inside.Out.2015.720p.WEBRip.x264.AAC2.0-RARBG","amp;tr":["udp%3A%2F%2Ftracker.leechers-paradise.org%3A6969","udp%3A%2F%2Fzer0day.ch%3A1337","udp%3A%2F%2Fopen.demonii.com%3A1337","udp%3A%2F%2Ftracker.coppersurfer.tk%3A6969","udp%3A%2F%2Fexodus.desync.com%3A6969"],"infoHash":"f000bafd08ff49a33d800fa1fd9c6bf6a89af4ab","infoHashBuffer":{"type":"Buffer","data":[240,0,186,253,8,255,73,163,61,128,15,161,253,156,107,246,168,154,244,171]},"announce":[],"urlList":[]}}